<svg xmlns="http://www.w3.org/2000/svg" width="115" height="110" viewBox="0 0 115 110" version="1.1">
  <path d="M 46.560 20.131 C 42.095 23.644, 41.639 26.354, 44.548 32.094 C 47.375 37.674, 49.666 39.178, 51.505 36.662 C 52.173 35.748, 53.401 35, 54.233 35 C 55.538 35, 64.053 48.469, 73.796 65.943 C 75.193 68.449, 77.984 73.200, 79.999 76.500 L 83.661 82.500 91.315 82.792 C 98.317 83.059, 98.913 82.931, 98.304 81.292 C 97.736 79.764, 92.834 70.795, 89.500 65.183 C 88.950 64.257, 86.925 60.800, 85 57.500 C 83.075 54.200, 81.050 50.730, 80.500 49.790 C 79.950 48.849, 76.188 42.324, 72.140 35.290 C 62.389 18.346, 62.045 18, 54.961 18 C 50.667 18, 48.604 18.523, 46.560 20.131 M 36.018 47.077 C 30.390 49.630, 28.281 51.532, 25.894 56.210 C 22.158 63.530, 24.490 76.094, 30.456 80.787 C 31.917 81.936, 35.347 83.619, 38.077 84.526 C 42.366 85.950, 43.726 85.999, 48.079 84.883 C 54.813 83.157, 60.616 78.115, 62.107 72.692 C 65.545 60.193, 60.106 49.185, 48.905 45.973 C 43.944 44.550, 41.040 44.799, 36.018 47.077 M 37.636 59.636 C 34.459 62.814, 34.189 67.386, 36.965 71 C 38.526 73.032, 39.755 73.500, 43.531 73.500 C 49.048 73.500, 52 70.720, 52 65.524 C 52 57.602, 43.255 54.017, 37.636 59.636" stroke="none" fill="#4c77edd3" fill-rule="evenodd"/>
</svg>